# xmcd
#
# Track frame offsets:
#	150
#	15228
#	30588
#	49504
#	64982
#	82236
#	93447
#	109456
#	123405
#	138369
#	154548
#	170748
#	184398
#	199429
#	215937
#	231843
#	247474
#	264469
#	277903
#
# Disc length: 3876 seconds
#
# Revision: 1
# Processed by: cddbd v1.5.2PL0 Copyright (c) Steve Scherf et al.
# Submitted via: audiograbber 1.83.01
#
DISCID=220f2213
DTITLE=Various Artist - So Country 2017 [Disc 1]
DYEAR=2017
DGENRE=Country
TTITLE0=The McClymonts - House
TTITLE1=Carrie Underwood - Dirty Laundry
TTITLE2=Chris Stapleton - Parachute
TTITLE3=Adam Harvey - A Little Less Lonely
TTITLE4=Sam Hunt - Break Up In A Small Town
TTITLE5=Shane Nicholson - Weight Of The World
TTITLE6=Darius Rucker - If I Told You
TTITLE7=Billy Currington - It Don't Hurt Like It Used To
TTITLE8=Maddie and Tae - Shut Up And Fish
TTITLE9=Brothers Osborne - 21 Summer
TTITLE10=Kacey Musgraves - Dime Store Cowgirl
TTITLE11=Eric Paslay - Angels In This Town
TTITLE12=Kelsea Ballerini - Peter Pan
TTITLE13=Easton Corbin - Are You With Me
TTITLE14=Maren Morris - 80s Mercedes
TTITLE15=Mickey Guyton - Heartbreak Song
TTITLE16=The Shires - My Universe
TTITLE17=Love And Theft - Candyland
TTITLE18=Melanie Dyer - Fresh
EXTD=
EXTT0=
EXTT1=
EXTT2=
EXTT3=
EXTT4=
EXTT5=
EXTT6=
EXTT7=
EXTT8=
EXTT9=
EXTT10=
EXTT11=
EXTT12=
EXTT13=
EXTT14=
EXTT15=
EXTT16=
EXTT17=
EXTT18=
PLAYORDER=
